<?xml version="1.0" encoding="UTF-8" ?>
<!DOCTYPE svg PUBLIC "-//W3C//DTD SVG 1.1//EN" "http://www.w3.org/Graphics/SVG/1.1/DTD/svg11.dtd">
<svg width="432pt" height="131pt" viewBox="0 0 432 131" version="1.1" xmlns="http://www.w3.org/2000/svg">
<path fill="#ffffff" d=" M 0.00 0.00 L 50.65 0.00 C 33.81 9.82 16.89 19.51 0.00 29.24 L 0.00 0.00 Z" />
<path fill="#706f6f" d=" M 50.65 0.00 L 51.01 0.00 C 50.94 13.89 51.11 27.78 50.92 41.68 C 40.72 45.29 33.37 56.03 34.87 66.94 C 35.95 78.78 47.08 88.62 59.00 88.05 C 71.61 88.15 82.82 76.63 82.31 64.01 C 82.43 54.03 75.39 45.14 66.26 41.65 C 66.26 27.76 66.20 13.88 66.29 0.00 L 67.19 0.00 C 69.40 1.44 71.59 2.92 73.89 4.22 C 88.44 12.49 102.85 21.01 117.44 29.20 C 117.61 51.85 117.42 74.51 117.54 97.16 C 100.60 107.04 83.56 116.73 66.60 126.58 C 64.12 128.01 61.71 129.62 59.00 130.59 C 57.29 130.41 55.81 129.45 54.33 128.67 C 36.29 118.07 18.01 107.85 0.00 97.19 L 0.00 29.24 C 16.89 19.51 33.81 9.82 50.65 0.00 Z" />
<path fill="#ffffff" d=" M 51.01 0.00 L 66.29 0.00 C 66.20 13.88 66.26 27.76 66.26 41.65 C 75.39 45.14 82.43 54.03 82.31 64.01 C 82.82 76.63 71.61 88.15 59.00 88.05 C 47.08 88.62 35.95 78.78 34.87 66.94 C 33.37 56.03 40.72 45.29 50.92 41.68 C 51.11 27.78 50.94 13.89 51.01 0.00 Z" />
<path fill="#ffffff" d=" M 67.19 0.00 L 432.00 0.00 L 432.00 131.00 L 0.00 131.00 L 0.00 97.19 C 18.01 107.85 36.29 118.07 54.33 128.67 C 55.81 129.45 57.29 130.41 59.00 130.59 C 61.71 129.62 64.12 128.01 66.60 126.58 C 83.56 116.73 100.60 107.04 117.54 97.16 C 117.42 74.51 117.61 51.85 117.44 29.20 C 102.85 21.01 88.44 12.49 73.89 4.22 C 71.59 2.92 69.40 1.44 67.19 0.00 Z" />
<path fill="#ffffff" d=" M 6.21 33.06 C 19.01 25.58 31.83 18.13 44.76 10.88 C 44.72 19.77 44.81 28.67 44.71 37.57 C 35.31 42.39 28.77 52.36 28.48 62.97 C 27.86 73.76 33.66 84.66 43.03 90.08 C 53.35 96.44 67.59 95.61 77.06 88.02 C 87.63 80.08 91.53 64.83 86.32 52.73 C 83.72 46.17 78.56 40.99 72.50 37.53 C 72.50 28.65 72.53 19.77 72.48 10.90 C 85.56 17.96 98.27 25.70 111.22 33.01 C 111.29 53.04 111.21 73.06 111.26 93.08 L 110.80 93.81 C 93.45 103.77 76.10 113.71 58.83 123.80 C 41.22 113.91 23.85 103.59 6.27 93.65 C 6.20 73.45 6.31 53.26 6.21 33.06 Z" />
<path fill="#525456" d=" M 176.48 41.29 C 179.86 41.31 183.28 40.98 186.64 41.47 C 188.75 41.85 189.29 44.20 189.23 46.02 C 189.31 57.35 189.19 68.69 189.27 80.02 C 193.55 80.39 197.85 80.29 202.14 80.15 C 202.18 78.77 202.22 77.40 202.25 76.03 C 204.83 76.01 207.41 76.00 209.99 75.99 C 209.91 79.20 210.39 82.53 209.51 85.66 C 208.59 87.73 205.90 87.43 204.02 87.53 C 197.38 87.39 190.73 87.70 184.09 87.39 C 182.23 87.45 180.77 85.79 180.84 83.98 C 180.42 72.14 181.22 60.27 180.45 48.45 C 179.14 48.47 177.82 48.49 176.51 48.51 C 176.50 46.10 176.49 43.70 176.48 41.29 Z" />
<path fill="#525456" d=" M 249.72 41.32 C 252.98 41.32 256.30 40.93 259.53 41.56 C 261.09 41.83 261.87 43.45 261.90 44.90 C 262.16 49.15 261.96 53.41 261.96 57.67 C 267.14 52.36 276.34 52.06 281.65 57.31 C 287.00 62.99 287.70 71.96 284.95 79.02 C 282.71 84.96 276.35 88.95 270.01 88.18 C 266.67 87.99 263.92 85.94 261.40 83.95 C 261.44 84.84 261.51 86.62 261.55 87.50 C 258.95 87.50 256.34 87.50 253.74 87.49 C 253.71 74.99 253.83 62.48 253.70 49.98 C 254.02 47.78 251.18 48.48 249.88 47.82 C 249.63 45.66 249.74 43.48 249.72 41.32 Z" />
<path fill="#525456" d=" M 291.80 41.22 C 300.54 41.31 309.28 41.18 318.02 41.27 C 319.74 41.23 321.99 41.87 322.23 43.89 C 322.76 46.80 322.44 49.79 322.51 52.74 C 319.92 52.75 317.34 52.74 314.76 52.70 C 314.72 51.33 314.67 49.96 314.62 48.59 C 311.24 48.49 307.87 48.48 304.50 48.49 C 304.50 52.83 304.50 57.16 304.49 61.49 C 309.35 61.50 314.21 61.53 319.06 61.45 C 319.22 63.88 319.26 66.32 319.26 68.76 C 314.44 68.81 309.62 68.60 304.80 68.83 C 304.04 74.99 304.75 81.30 304.50 87.51 C 301.66 87.51 298.83 87.50 296.00 87.50 C 295.93 74.47 296.14 61.44 295.89 48.41 C 294.50 48.45 293.11 48.50 291.73 48.54 C 291.75 46.10 291.77 43.66 291.80 41.22 Z" />
<path fill="#525456" d=" M 325.49 43.45 C 325.89 41.39 328.29 41.22 329.97 41.24 C 340.30 41.25 350.64 41.25 360.98 41.24 C 362.65 41.24 365.08 41.35 365.50 43.41 C 366.02 46.49 365.69 49.64 365.74 52.75 C 363.25 52.75 360.76 52.75 358.27 52.75 C 358.23 51.36 358.19 49.98 358.15 48.60 C 355.35 48.51 352.55 48.49 349.74 48.50 C 349.79 61.48 349.68 74.46 349.80 87.43 C 346.93 87.52 344.06 87.52 341.20 87.44 C 341.32 74.46 341.20 61.48 341.26 48.50 C 338.46 48.49 335.65 48.51 332.86 48.59 C 332.80 49.98 332.75 51.37 332.71 52.76 C 330.22 52.75 327.74 52.75 325.26 52.75 C 325.30 49.66 324.99 46.52 325.49 43.45 Z" />
<path fill="#525456" d=" M 369.03 41.20 C 372.76 41.56 378.98 39.82 380.18 44.82 C 382.71 55.55 385.20 66.31 387.51 77.09 C 390.20 65.13 393.77 53.38 396.83 41.51 C 399.28 41.50 401.73 41.51 404.19 41.52 C 406.89 53.26 410.37 64.82 412.83 76.61 C 412.91 76.61 413.07 76.62 413.16 76.62 C 414.96 66.71 417.58 56.96 419.72 47.12 C 420.26 45.37 420.31 43.06 422.13 42.05 C 424.86 40.66 428.05 41.40 431.00 41.28 C 431.00 43.58 431.00 45.87 430.98 48.17 C 430.03 48.69 428.29 48.60 428.18 50.02 C 425.09 61.62 422.20 73.27 419.23 84.90 C 418.96 85.53 418.40 86.80 418.12 87.43 C 414.99 87.64 411.85 87.48 408.72 87.50 C 406.00 76.93 402.74 66.49 400.52 55.80 C 397.92 66.43 394.62 76.88 391.85 87.46 C 388.51 87.52 385.18 87.51 381.84 87.48 C 378.64 74.55 375.37 61.63 371.98 48.74 C 371.25 48.68 369.79 48.57 369.07 48.51 C 369.02 46.07 369.01 43.64 369.03 41.20 Z" />
<path fill="#24b2be" d=" M 59.41 47.47 C 61.42 45.29 65.64 47.02 65.43 50.00 C 65.59 52.61 62.37 54.56 60.14 53.10 C 57.99 52.15 57.90 49.02 59.41 47.47 Z" />
<path fill="#24b2be" d=" M 53.14 50.25 C 56.07 48.38 58.75 53.22 55.67 54.64 C 52.98 56.28 50.40 51.78 53.14 50.25 Z" />
<path fill="#525456" d=" M 145.80 56.76 C 151.96 52.22 161.70 52.16 167.07 57.97 C 170.59 61.77 171.21 67.21 170.96 72.17 C 163.18 72.35 155.39 72.20 147.60 72.25 C 148.28 75.72 150.15 79.23 153.68 80.47 C 158.32 82.49 163.32 80.39 167.21 77.74 C 168.37 79.61 169.52 81.48 170.67 83.36 C 165.71 87.26 159.07 89.25 152.83 87.78 C 146.80 86.64 141.60 81.94 140.00 76.00 C 138.00 69.23 140.00 61.07 145.80 56.76 Z" />
<path fill="#525456" d=" M 218.67 55.69 C 223.67 52.93 229.96 52.88 235.30 54.65 C 239.60 56.04 242.10 60.42 242.37 64.75 C 242.71 69.93 242.36 75.13 242.56 80.32 C 243.87 80.40 245.18 80.48 246.50 80.56 C 246.50 82.87 246.50 85.18 246.51 87.49 C 243.39 87.43 240.21 87.84 237.14 87.17 C 235.14 86.81 235.06 84.59 234.63 83.04 C 230.92 88.69 222.53 89.98 217.26 85.81 C 212.51 82.43 212.13 74.43 216.86 70.88 C 221.80 67.19 228.27 66.88 234.20 66.72 C 233.98 64.47 233.87 61.55 231.40 60.55 C 228.47 59.27 222.96 59.55 223.59 63.97 C 221.04 63.99 218.48 64.00 215.93 64.01 C 215.97 61.09 215.66 57.34 218.67 55.69 Z" />
<path fill="#24b2be" d=" M 50.28 80.68 C 41.90 76.67 38.26 65.95 41.68 57.44 C 53.13 57.63 64.58 57.29 76.02 57.63 C 77.44 63.12 77.47 69.29 74.22 74.18 C 69.47 82.09 58.39 85.09 50.28 80.68 Z" />
<path fill="#ffffff" d=" M 66.33 59.43 C 68.75 57.82 72.42 60.02 71.77 62.97 C 71.72 65.57 68.38 66.91 66.33 65.56 C 64.13 64.35 64.11 60.64 66.33 59.43 Z" />
<path fill="#ffffff" d=" M 47.36 60.37 C 49.04 58.80 52.35 59.44 52.49 62.01 C 53.06 63.98 50.85 66.05 48.91 65.37 C 46.66 64.98 46.05 62.00 47.36 60.37 Z" />
<path fill="#ffffff" d=" M 147.88 66.52 C 148.93 62.47 152.80 59.32 157.10 60.01 C 160.43 60.29 162.10 63.57 162.76 66.47 C 157.80 66.52 152.84 66.49 147.88 66.52 Z" />
<path fill="#ffffff" d=" M 266.36 61.37 C 270.12 59.19 275.30 61.09 277.02 65.03 C 279.06 69.53 278.83 75.61 275.16 79.23 C 271.85 82.47 265.73 81.72 263.49 77.60 C 260.55 72.56 260.98 64.62 266.36 61.37 Z" />
<path fill="#ffffff" d=" M 57.32 65.49 C 59.35 64.08 62.86 65.37 62.77 68.06 C 63.36 70.78 59.75 73.07 57.50 71.46 C 55.21 70.33 55.23 66.80 57.32 65.49 Z" />
<path fill="#ffffff" d=" M 221.72 76.92 C 223.62 71.93 230.15 72.65 234.50 72.47 C 234.17 75.76 232.92 79.21 229.89 80.92 C 226.79 83.09 221.15 81.29 221.72 76.92 Z" />
</svg>
