<?xml version="1.0" encoding="UTF-8" standalone="no"?>
<!-- Created with Inkscape (http://www.inkscape.org/) -->

<svg
   xmlns:dc="http://purl.org/dc/elements/1.1/"
   xmlns:cc="http://creativecommons.org/ns#"
   xmlns:rdf="http://www.w3.org/1999/02/22-rdf-syntax-ns#"
   xmlns:svg="http://www.w3.org/2000/svg"
   xmlns="http://www.w3.org/2000/svg"
   xmlns:sodipodi="http://sodipodi.sourceforge.net/DTD/sodipodi-0.dtd"
   xmlns:inkscape="http://www.inkscape.org/namespaces/inkscape"
   id="svg2"
   version="1.1"
   inkscape:version="0.92.1 r15371"
   xml:space="preserve"
   width="292.19269"
   height="255.31467"
   viewBox="0 0 273.93063 239.3575"
   sodipodi:docname="logoEE_v1.svg"><metadata
     id="metadata8"><rdf:RDF><cc:Work
         rdf:about=""><dc:format>image/svg+xml</dc:format><dc:type
           rdf:resource="http://purl.org/dc/dcmitype/StillImage" /><dc:title /></cc:Work></rdf:RDF></metadata><defs
     id="defs6"><clipPath
       clipPathUnits="userSpaceOnUse"
       id="clipPath18"><path
         d="m 827.324,1176.58 h 1180 v 1374.6 h -1180 z"
         id="path20"
         inkscape:connector-curvature="0"
         style="clip-rule:evenodd" /></clipPath><clipPath
       clipPathUnits="userSpaceOnUse"
       id="clipPath28"><path
         d="m 898.898,1760.25 h 1075.1 v 137.398 h -1075.1 z"
         id="path30"
         inkscape:connector-curvature="0"
         style="clip-rule:evenodd" /></clipPath><clipPath
       clipPathUnits="userSpaceOnUse"
       id="clipPath40"><path
         d="m 283.465,283.465 h 2267.71 v 2267.71 H 283.465 Z"
         id="path42"
         inkscape:connector-curvature="0" /></clipPath></defs><sodipodi:namedview
     pagecolor="#ffffff"
     bordercolor="#666666"
     borderopacity="1"
     objecttolerance="10"
     gridtolerance="10"
     guidetolerance="10"
     inkscape:pageopacity="0"
     inkscape:pageshadow="2"
     inkscape:window-width="1920"
     inkscape:window-height="1053"
     id="namedview4"
     showgrid="false"
     fit-margin-top="0"
     fit-margin-left="0"
     fit-margin-right="0"
     fit-margin-bottom="0"
     inkscape:zoom="0.66605515"
     inkscape:cx="-182.58145"
     inkscape:cy="97.622494"
     inkscape:window-x="0"
     inkscape:window-y="27"
     inkscape:window-maximized="1"
     inkscape:current-layer="g10" /><g
     id="g10"
     inkscape:groupmode="layer"
     inkscape:label="ink_ext_XXXXXX"
     transform="matrix(1.25,0,0,-1.25,-39.950625,318.8975)"><g
       id="g12"
       transform="scale(0.1)"><g
         id="g14"><g
           id="g16"
           clip-path="url(#clipPath18)"><path
             d="m 1942.71,1863.88 c 0,-344.05 -235.21,-622.93 -525.39,-622.93 -290.16,0 -525.382,278.88 -525.382,622.93 0,344.04 235.222,622.94 525.382,622.94 290.18,0 525.39,-278.9 525.39,-622.94 z"
             style="fill:none;stroke:#f16d17;stroke-width:128.977005;stroke-linecap:butt;stroke-linejoin:miter;stroke-miterlimit:10;stroke-dasharray:none;stroke-opacity:1"
             id="path22"
             inkscape:connector-curvature="0" /></g></g><g
         id="g24"><g
           id="g26"
           clip-path="url(#clipPath28)"><path
             d="m 898.898,1760.24 h 444.895 v 137.406 H 898.898 Z"
             style="fill:#f16d17;fill-opacity:1;fill-rule:evenodd;stroke:none"
             id="path32"
             inkscape:connector-curvature="0" /><path
             d="m 1529.11,1760.24 h 444.895 v 137.406 H 1529.11 Z"
             style="fill:#f16d17;fill-opacity:1;fill-rule:evenodd;stroke:none"
             id="path34"
             inkscape:connector-curvature="0" /></g></g><g
         id="g36"><g
           id="g38"
           clip-path="url(#clipPath40)"><path
             d="m 426.613,723.648 c 0,0 -23.367,0 -42.843,8.817 0,0 -19.473,8.816 -33.825,24.191 0,0 -14.351,15.375 -22.343,35.465 0,0 -7.997,20.09 -7.997,43.051 0,0 0,22.547 7.997,42.433 0,0 7.992,19.883 22.136,34.848 0,0 14.149,14.969 33.828,23.781 0,0 19.68,8.817 42.637,8.817 0,0 23.371,0 42.848,-8.817 0,0 19.472,-8.812 33.414,-23.984 0,0 13.941,-15.172 21.73,-34.852 0,0 7.789,-19.679 7.789,-41.82 0,0 0,-3.277 0,-6.558 0,0 0,-3.282 -0.41,-4.508 H 348.715 c 0,0 1.23,-17.223 7.996,-31.778 0,0 6.766,-14.554 17.426,-25.214 0,0 10.66,-10.661 24.394,-16.606 0,0 13.735,-5.945 29.313,-5.945 0,0 10.25,0 20.5,2.871 0,0 10.25,2.871 18.859,7.789 0,0 8.613,4.922 15.582,12.098 0,0 6.969,7.171 10.66,15.785 l 24.192,-6.563 c 0,0 -4.922,-11.89 -13.942,-21.523 0,0 -9.019,-9.637 -20.91,-16.813 0,0 -11.89,-7.172 -26.238,-11.066 0,0 -14.352,-3.899 -29.934,-3.899 z m 78.723,122.18 c 0,0 -1.231,17.223 -7.996,31.367 0,0 -6.766,14.145 -17.219,24.395 0,0 -10.457,10.25 -24.191,15.988 0,0 -13.735,5.742 -29.317,5.742 0,0 -15.578,0 -29.519,-5.742 0,0 -13.938,-5.738 -24.395,-15.988 0,0 -10.453,-10.25 -16.808,-24.602 0,0 -6.356,-14.347 -7.586,-31.16 h 157.031"
             style="fill:#181412;fill-opacity:1;fill-rule:nonzero;stroke:none"
             id="path44"
             inkscape:connector-curvature="0" /><path
             d="m 628.746,723.648 c 0,0 -15.172,0 -28.086,5.125 0,0 -12.914,5.125 -22.551,14.149 0,0 -9.632,9.019 -14.964,21.113 0,0 -5.329,12.094 -5.329,26.035 0,0 0,13.942 6.559,25.828 0,0 6.559,11.891 18.449,20.5 0,0 11.891,8.614 28.289,13.329 0,0 16.403,4.714 36.082,4.714 0,0 16.399,0 33.211,-2.871 0,0 16.809,-2.871 29.93,-8.199 v 19.27 c 0,0 0,28.289 -15.992,44.894 0,0 -15.989,16.606 -44.278,16.606 0,0 -16.402,0 -33.621,-6.563 0,0 -17.218,-6.558 -34.851,-18.859 l -9.84,18.453 c 0,0 41.41,27.879 80.359,27.879 0,0 40.184,0 63.141,-22.551 0,0 22.961,-22.551 22.961,-62.32 v -96.352 c 0,0 0,-11.476 10.25,-11.476 V 727.75 c 0,0 -6.969,-1.23 -10.66,-1.23 0,0 -10.66,0 -16.606,5.332 0,0 -5.945,5.328 -6.355,14.757 l -0.821,16.813 c 0,0 -14.757,-19.274 -37.101,-29.524 0,0 -22.348,-10.25 -48.176,-10.25 z m 6.559,21.321 c 0,0 21.73,0 39.976,8.203 0,0 18.242,8.199 27.672,21.726 0,0 3.692,3.692 5.535,7.997 0,0 1.848,4.304 1.848,7.996 v 34.847 c 0,0 -13.941,5.332 -28.906,8.203 0,0 -14.965,2.868 -30.543,2.868 0,0 -29.524,0 -47.973,-12.297 0,0 -18.449,-12.301 -18.449,-32.391 0,0 0,-9.84 3.894,-18.449 0,0 3.895,-8.613 10.661,-14.969 0,0 6.765,-6.351 16.195,-10.043 0,0 9.43,-3.691 20.09,-3.691"
             style="fill:#181412;fill-opacity:1;fill-rule:nonzero;stroke:none"
             id="path46"
             inkscape:connector-curvature="0" /><path
             d="m 869.414,723.648 c 0,0 -25.008,0 -48.789,8.204 0,0 -23.781,8.199 -41,23.777 l 12.711,18.859 c 0,0 18.039,-14.758 36.695,-22.136 0,0 18.653,-7.383 39.973,-7.383 0,0 25.832,0 41.207,10.457 0,0 15.375,10.453 15.375,29.722 0,0 0,9.024 -4.102,14.965 0,0 -4.097,5.946 -12.093,10.457 0,0 -7.996,4.508 -20.09,7.996 0,0 -12.098,3.485 -28.086,7.172 0,0 -18.449,4.512 -31.981,9.024 0,0 -13.531,4.508 -22.343,10.25 0,0 -8.817,5.738 -13.121,14.144 0,0 -4.305,8.403 -4.305,21.114 0,0 0,15.992 6.355,28.289 0,0 6.356,12.3 17.219,20.296 0,0 10.867,7.997 25.422,12.094 0,0 14.555,4.102 30.953,4.102 0,0 24.602,0 44.691,-7.996 0,0 20.09,-7.996 32.391,-21.114 l -13.531,-16.402 c 0,0 -11.891,12.301 -28.906,18.449 0,0 -17.012,6.153 -35.465,6.153 0,0 -11.071,0 -20.5,-2.254 0,0 -9.43,-2.258 -16.606,-7.176 0,0 -7.172,-4.922 -11.273,-12.508 0,0 -4.102,-7.582 -4.102,-17.832 0,0 0,-8.609 2.871,-13.941 0,0 2.871,-5.328 9.43,-9.227 0,0 6.563,-3.894 16.606,-6.969 0,0 10.046,-3.074 24.394,-6.355 0,0 20.5,-4.918 36.082,-9.84 0,0 15.578,-4.918 26.035,-11.48 0,0 10.453,-6.559 15.785,-15.989 0,0 5.329,-9.429 5.329,-22.961 0,0 0,-29.519 -22.551,-46.738 0,0 -22.547,-17.223 -60.68,-17.223"
             style="fill:#181412;fill-opacity:1;fill-rule:nonzero;stroke:none"
             id="path48"
             inkscape:connector-curvature="0" /><path
             d="m 1100.66,738 c 0,0 -2.46,-1.23 -7.18,-3.281 0,0 -4.71,-2.047 -10.87,-4.098 0,0 -6.15,-2.051 -13.93,-3.691 0,0 -7.79,-1.641 -16.41,-1.641 0,0 -9.02,0 -17.22,2.461 0,0 -8.19,2.461 -14.35,7.586 0,0 -6.15,5.125 -9.84,12.914 0,0 -3.68,7.789 -3.68,18.039 v 152.93 h -29.524 v 22.14 h 29.524 v 72.161 h 27.87 v -72.161 h 49.2 v -22.14 h -49.2 V 774.078 c 0,0 0.83,-11.887 8.41,-17.422 0,0 7.59,-5.535 17.43,-5.535 0,0 11.88,0 20.91,3.895 0,0 9.02,3.894 11.47,5.535 L 1100.66,738"
             style="fill:#181412;fill-opacity:1;fill-rule:nonzero;stroke:none"
             id="path50"
             inkscape:connector-curvature="0" /><path
             d="m 1222.43,723.648 c 0,0 -23.38,0 -42.85,8.817 0,0 -19.47,8.816 -33.83,24.191 0,0 -14.34,15.375 -22.34,35.465 0,0 -8,20.09 -8,43.051 0,0 0,22.547 8,42.433 0,0 8,19.883 22.14,34.848 0,0 14.15,14.969 33.83,23.781 0,0 19.67,8.817 42.64,8.817 0,0 23.37,0 42.84,-8.817 0,0 19.48,-8.812 33.41,-23.984 0,0 13.94,-15.172 21.73,-34.852 0,0 7.8,-19.679 7.8,-41.82 0,0 0,-3.277 0,-6.558 0,0 0,-3.282 -0.41,-4.508 h -182.87 c 0,0 1.23,-17.223 8,-31.778 0,0 6.77,-14.554 17.43,-25.214 0,0 10.66,-10.661 24.39,-16.606 0,0 13.73,-5.945 29.32,-5.945 0,0 10.25,0 20.5,2.871 0,0 10.25,2.871 18.86,7.789 0,0 8.61,4.922 15.57,12.098 0,0 6.98,7.171 10.66,15.785 l 24.2,-6.563 c 0,0 -4.93,-11.89 -13.95,-21.523 0,0 -9.02,-9.637 -20.91,-16.813 0,0 -11.88,-7.172 -26.23,-11.066 0,0 -14.36,-3.899 -29.93,-3.899 z m 78.71,122.18 c 0,0 -1.23,17.223 -7.99,31.367 0,0 -6.76,14.145 -17.22,24.395 0,0 -10.45,10.25 -24.19,15.988 0,0 -13.74,5.742 -29.31,5.742 0,0 -15.59,0 -29.52,-5.742 0,0 -13.95,-5.738 -24.4,-15.988 0,0 -10.46,-10.25 -16.81,-24.602 0,0 -6.36,-14.347 -7.59,-31.16 h 157.03"
             style="fill:#181412;fill-opacity:1;fill-rule:nonzero;stroke:none"
             id="path52"
             inkscape:connector-curvature="0" /><path
             d="m 1477.45,916.762 c 0,0 -28.29,-0.821 -49.2,-15.582 0,0 -20.91,-14.758 -29.52,-40.59 V 727.75 h -27.89 v 213.609 h 26.25 v -51.25 c 0,0 11.89,24.602 31.98,38.539 0,0 20.09,13.942 43.04,13.942 0,0 3.28,0 5.34,-0.41 v -25.418"
             style="fill:#181412;fill-opacity:1;fill-rule:nonzero;stroke:none"
             id="path54"
             inkscape:connector-curvature="0" /><path
             d="m 1701.71,723.648 c 0,0 -23.37,0 -42.84,8.817 0,0 -19.48,8.816 -33.82,24.191 0,0 -14.35,15.375 -22.35,35.465 0,0 -8,20.09 -8,43.051 0,0 0,22.547 8,42.433 0,0 8,19.883 22.14,34.848 0,0 14.14,14.969 33.82,23.781 0,0 19.68,8.817 42.64,8.817 0,0 23.38,0 42.85,-8.817 0,0 19.48,-8.812 33.42,-23.984 0,0 13.93,-15.172 21.73,-34.852 0,0 7.79,-19.679 7.79,-41.82 0,0 0,-3.277 0,-6.558 0,0 0,-3.282 -0.41,-4.508 h -182.86 c 0,0 1.23,-17.223 7.99,-31.778 0,0 6.76,-14.554 17.42,-25.214 0,0 10.66,-10.661 24.4,-16.606 0,0 13.73,-5.945 29.32,-5.945 0,0 10.25,0 20.5,2.871 0,0 10.25,2.871 18.85,7.789 0,0 8.61,4.922 15.59,12.098 0,0 6.97,7.171 10.66,15.785 l 24.18,-6.563 c 0,0 -4.91,-11.89 -13.93,-21.523 0,0 -9.03,-9.637 -20.91,-16.813 0,0 -11.89,-7.172 -26.25,-11.066 0,0 -14.34,-3.899 -29.93,-3.899 z m 78.72,122.18 c 0,0 -1.23,17.223 -7.99,31.367 0,0 -6.76,14.145 -17.22,24.395 0,0 -10.45,10.25 -24.19,15.988 0,0 -13.73,5.742 -29.32,5.742 0,0 -15.57,0 -29.51,-5.742 0,0 -13.95,-5.738 -24.4,-15.988 0,0 -10.46,-10.25 -16.81,-24.602 0,0 -6.35,-14.347 -7.58,-31.16 h 157.02"
             style="fill:#181412;fill-opacity:1;fill-rule:nonzero;stroke:none"
             id="path56"
             inkscape:connector-curvature="0" /><path
             d="m 1935.82,724.879 c 0,0 -22.14,0 -40.38,9.226 0,0 -18.24,9.223 -31.57,24.395 0,0 -13.32,15.172 -20.71,34.852 0,0 -7.37,19.679 -7.37,40.589 0,0 0,22.137 7.17,42.434 0,0 7.18,20.297 20.29,35.465 0,0 13.13,15.172 31.37,24.191 0,0 18.24,9.02 40.38,9.02 0,0 27.48,0 47.57,-13.735 0,0 20.09,-13.738 34.43,-34.644 v 44.687 h 25.02 V 726.93 c 0,0 0,-22.141 -8.41,-39.157 0,0 -8.41,-17.011 -22.55,-28.492 0,0 -14.15,-11.48 -33.21,-17.222 0,0 -19.06,-5.739 -40.39,-5.739 0,0 -36.89,0 -59.44,13.121 0,0 -22.56,13.118 -36.5,35.258 l 17.23,13.531 c 0,0 12.7,-20.5 33.61,-30.136 0,0 20.91,-9.633 45.1,-9.633 0,0 15.59,0 29.52,4.305 0,0 13.95,4.304 24.4,12.711 0,0 10.46,8.402 16.6,21.32 0,0 6.16,12.914 6.16,30.133 v 42.23 c 0,0 -12.3,-20.5 -33.62,-32.39 0,0 -21.32,-11.891 -44.7,-11.891 z m 7.79,23.371 c 0,0 12.3,0 24.19,4.512 0,0 11.9,4.508 21.53,12.093 0,0 9.63,7.586 16.19,17.016 0,0 6.57,9.43 8.62,19.27 v 66.007 c 0,0 -4.51,11.481 -12.3,21.321 0,0 -7.79,9.84 -17.64,16.812 0,0 -9.84,6.969 -21.11,11.071 0,0 -11.27,4.097 -22.75,4.097 0,0 -18.04,0 -32.19,-7.586 0,0 -14.15,-7.582 -23.99,-19.883 0,0 -9.84,-12.3 -14.96,-27.878 0,0 -5.13,-15.582 -5.13,-31.571 0,0 0,-17.222 6.16,-32.801 0,0 6.15,-15.582 17.01,-27.265 0,0 10.87,-11.684 25.21,-18.449 0,0 14.35,-6.766 31.16,-6.766"
             style="fill:#181412;fill-opacity:1;fill-rule:nonzero;stroke:none"
             id="path58"
             inkscape:connector-curvature="0" /><path
             d="m 2189.2,724.879 c 0,0 -22.13,0 -40.38,9.226 0,0 -18.25,9.223 -31.57,24.395 0,0 -13.32,15.172 -20.7,34.852 0,0 -7.39,19.679 -7.39,40.589 0,0 0,22.137 7.18,42.434 0,0 7.18,20.297 20.3,35.465 0,0 13.11,15.172 31.36,24.191 0,0 18.25,9.02 40.39,9.02 0,0 27.47,0 47.56,-13.735 0,0 20.09,-13.738 34.44,-34.644 v 44.687 h 25 V 726.93 c 0,0 0,-22.141 -8.4,-39.157 0,0 -8.4,-17.011 -22.55,-28.492 0,0 -14.14,-11.48 -33.21,-17.222 0,0 -19.07,-5.739 -40.39,-5.739 0,0 -36.89,0 -59.45,13.121 0,0 -22.55,13.118 -36.48,35.258 l 17.22,13.531 c 0,0 12.71,-20.5 33.62,-30.136 0,0 20.91,-9.633 45.09,-9.633 0,0 15.59,0 29.52,4.305 0,0 13.94,4.304 24.4,12.711 0,0 10.45,8.402 16.6,21.32 0,0 6.16,12.914 6.16,30.133 v 42.23 c 0,0 -12.31,-20.5 -33.63,-32.39 0,0 -21.32,-11.891 -44.69,-11.891 z m 7.8,23.371 c 0,0 12.3,0 24.18,4.512 0,0 11.89,4.508 21.53,12.093 0,0 9.63,7.586 16.2,17.016 0,0 6.55,9.43 8.61,19.27 v 66.007 c 0,0 -4.52,11.481 -12.31,21.321 0,0 -7.78,9.84 -17.62,16.812 0,0 -9.84,6.969 -21.12,11.071 0,0 -11.27,4.097 -22.76,4.097 0,0 -18.03,0 -32.18,-7.586 0,0 -14.14,-7.582 -23.98,-19.883 0,0 -9.85,-12.3 -14.97,-27.878 0,0 -5.13,-15.582 -5.13,-31.571 0,0 0,-17.222 6.16,-32.801 0,0 6.14,-15.582 17.01,-27.265 0,0 10.86,-11.684 25.22,-18.449 0,0 14.34,-6.766 31.16,-6.766"
             style="fill:#181412;fill-opacity:1;fill-rule:nonzero;stroke:none"
             id="path60"
             inkscape:connector-curvature="0" /><path
             d="m 2427.82,723.648 c 0,0 -25,0 -48.78,8.204 0,0 -23.79,8.199 -41,23.777 l 12.71,18.859 c 0,0 18.04,-14.758 36.69,-22.136 0,0 18.65,-7.383 39.97,-7.383 0,0 25.84,0 41.21,10.457 0,0 15.38,10.453 15.38,29.722 0,0 0,9.024 -4.11,14.965 0,0 -4.09,5.946 -12.09,10.457 0,0 -8,4.508 -20.09,7.996 0,0 -12.1,3.485 -28.08,7.172 0,0 -18.45,4.512 -31.99,9.024 0,0 -13.53,4.508 -22.34,10.25 0,0 -8.82,5.738 -13.12,14.144 0,0 -4.3,8.403 -4.3,21.114 0,0 0,15.992 6.35,28.289 0,0 6.36,12.3 17.22,20.296 0,0 10.87,7.997 25.42,12.094 0,0 14.56,4.102 30.95,4.102 0,0 24.61,0 44.7,-7.996 0,0 20.09,-7.996 32.39,-21.114 l -13.53,-16.402 c 0,0 -11.9,12.301 -28.91,18.449 0,0 -17.01,6.153 -35.47,6.153 0,0 -11.07,0 -20.5,-2.254 0,0 -9.43,-2.258 -16.6,-7.176 0,0 -7.17,-4.922 -11.27,-12.508 0,0 -4.11,-7.582 -4.11,-17.832 0,0 0,-8.609 2.87,-13.941 0,0 2.88,-5.328 9.43,-9.227 0,0 6.57,-3.894 16.61,-6.969 0,0 10.05,-3.074 24.39,-6.355 0,0 20.5,-4.918 36.09,-9.84 0,0 15.57,-4.918 26.03,-11.48 0,0 10.45,-6.559 15.79,-15.989 0,0 5.32,-9.429 5.32,-22.961 0,0 0,-29.519 -22.55,-46.738 0,0 -22.54,-17.223 -60.68,-17.223"
             style="fill:#181412;fill-opacity:1;fill-rule:nonzero;stroke:none"
             id="path62"
             inkscape:connector-curvature="0" /></g></g></g></g></svg>