<?xml version="1.0" encoding="utf-8"?>
<!-- Generator: Adobe Illustrator 27.6.1, SVG Export Plug-In . SVG Version: 6.00 Build 0)  -->
<svg version="1.1" id="Camada_1" xmlns="http://www.w3.org/2000/svg" xmlns:xlink="http://www.w3.org/1999/xlink" x="0px" y="0px"
	 viewBox="0 0 299 113" style="enable-background:new 0 0 299 113;" xml:space="preserve">
<style type="text/css">
	.st0{fill:#0A0AF4;}
	.st1{fill:#030352;}
</style>
<path class="st0" d="M149.5,100.7c9.2,0,15.1-5.2,15.1-13.3v-6.8h-12.1l-3.1,6.4h8.3v0.4c0,4.3-2.6,6.7-8.2,6.7
	c-5.4,0-8.2-3-8.2-8.6v-6.1c0-5.7,2.9-8.6,8.2-8.6c5,0,8,2.3,8.2,6.4h6.9c-0.3-8.3-6.4-13-15.1-13c-9,0-15.1,5.5-15.1,15.3v6.1
	C134.3,95.2,140.5,100.7,149.5,100.7z"/>
<path class="st0" d="M169.6,100.3h6.4V85.4c0-3.9,2-5.9,5.7-5.9h3.9v-6.1h-3.9c-3.5,0-5,1-5.7,1.8v-1.8h-6.4V100.3z"/>
<path class="st0" d="M187.6,84.3v5c0,7,5,11.4,11.8,11.4c6.9,0,11.8-4.5,11.8-11.4v-5c0-7-4.9-11.4-11.8-11.4
	C192.6,72.9,187.6,77.4,187.6,84.3z M194,89.3v-5c0-3.2,1.9-5.3,5.4-5.3c3.5,0,5.4,2,5.4,5.3v5c0,3.7-1.8,5.3-5.4,5.3
	C195.9,94.6,194,93.1,194,89.3z"/>
<path class="st0" d="M232,90.1c0,3.4-2,4.7-5,4.7c-3,0-5-1.3-5-4.7V73.4h-6.4v17.5c0,6,4.2,9.9,11.4,9.9c7.1,0,11.4-3.9,11.4-9.9
	V73.4H232V90.1z"/>
<path class="st0" d="M256.3,100.7c6.9,0,10.8-4.5,10.8-11.4v-5c0-7-3.9-11.4-10.8-11.4c-2.7,0-4.8,0.7-6.4,1.9v-1.4h-6.4v39.1h6.4
	V98.8C251.5,100.1,253.6,100.7,256.3,100.7z M249.9,89.3v-5c0-3.2,1.8-5.3,5.4-5.3c3.5,0,5.4,2,5.4,5.3v5c0,3.7-1.9,5.3-5.4,5.3
	C251.7,94.6,249.9,93.1,249.9,89.3z"/>
<path class="st1" d="M41.4,13.4v34.7h7V13.4H41.4z"/>
<path class="st1" d="M252,13.4v34.7h7V13.4H252z"/>
<path class="st1" d="M81.7,16.7c-0.9-1-2-1.8-3.3-2.4c-2-1-4.4-1.5-7.1-1.5c-0.2,0-0.4,0-0.6,0c0,0,0,0,0,0c-0.2,0-0.4,0-0.6,0
	c-2.7,0-5.1,0.5-7.1,1.5c-1.2,0.6-2.3,1.4-3.3,2.4c-2.5,2.6-3.8,6.1-3.8,10.6v6.7c0,4.6,1.2,8.1,3.8,10.7c1,1,2,1.8,3.3,2.4
	c2,1,4.4,1.5,7.1,1.5c0.2,0,0.4,0,0.7,0c3.1-0.1,5.6-1,7.7-2.6v4.7c0,2.2-0.6,3.8-1.7,5c-1.1,1.1-2.8,1.7-5.3,1.8
	c-0.2,0-0.3,0-0.5,0c-0.1,0-0.2,0-0.2,0c-0.1,0-0.2,0-0.2,0h-4.3l-2.4,4.9L63,64h8c3,0,5.6-0.5,7.7-1.5c1.2-0.6,2.2-1.3,3.1-2.2
	c0.8-0.8,1.5-1.7,2.1-2.7c1.1-2,1.7-4.2,1.7-6.8V27.3C85.4,22.8,84.2,19.3,81.7,16.7z M78.4,34.1c0,0.2,0,0.3,0,0.5
	c0,0.3,0,0.6-0.1,0.9c0,0.1,0,0.2,0,0.3c0,0.1,0,0.1,0,0.2c-0.3,1.7-0.9,3.1-1.9,4.1c-1.1,1.1-2.6,1.7-4.5,1.9c-0.1,0-0.3,0-0.4,0
	c-0.3,0-0.6,0-0.9,0c-0.3,0-0.5,0-0.8,0c-0.1,0-0.3,0-0.4,0c-1.8-0.2-3.3-0.8-4.4-1.9c-1-1-1.6-2.3-1.9-4.1c0-0.2-0.1-0.4-0.1-0.6
	c0-0.3,0-0.6-0.1-0.8c0-0.2,0-0.3,0-0.5v-6.6c0-0.8,0.1-1.6,0.2-2.3c0,0,0-0.1,0-0.1c0.3-1.5,0.9-2.7,1.8-3.6c1.3-1.2,3-1.9,5.3-2
	c0.1,0,0.3,0,0.4,0c0.2,0,0.3,0,0.5,0c2.2,0.1,4,0.7,5.3,2c0.9,0.8,1.5,2,1.8,3.4c0,0.1,0,0.2,0.1,0.3c0,0,0,0,0,0.1
	c0,0.1,0,0.2,0,0.3c0.1,0.6,0.1,1.3,0.1,2V34.1z"/>
<path class="st1" d="M92.4,48.1V13.4h7v2.7c1.9-2.2,4.9-3.3,9-3.3c3.8,0,7,1.1,9.4,3.4c2.4,2.3,3.6,5.4,3.6,9.2v22.7h-7V27
	c0-2.3-0.6-4.1-1.8-5.5c-1.2-1.4-3.1-2-5.6-2c-2.2,0-4,0.7-5.4,2c-1.4,1.3-2.1,3.2-2.1,5.6v21.1H92.4z"/>
<path class="st1" d="M150.2,13.4v2c-2.3-1.7-5.1-2.6-8.4-2.6c-4.4,0-7.8,1.3-10.3,3.9c-2.5,2.6-3.8,6.2-3.8,10.7v6.6
	c0,4.6,1.2,8.1,3.8,10.7c2.5,2.6,5.9,3.9,10.3,3.9c3.4,0,6.1-0.9,8.4-2.6v2h7V13.4H150.2z M150.2,34.1c0,2.8-0.7,4.9-2,6.1
	c-1.3,1.2-3.2,1.8-5.7,1.9c-2.5,0-4.5-0.6-5.8-1.8c-1.3-1.2-2-3.3-2-6.1v-6.6c0-2.6,0.7-4.6,2.1-5.9c1.4-1.4,3.3-2,5.7-2
	c2.4,0,4.2,0.7,5.6,2c1.4,1.4,2,3.3,2.1,5.9V34.1z"/>
<path class="st1" d="M162.8,19.8v-6.4h5.2l0.1-7h6.9v7h8.4v6.4h-8.4v21.7h8.4v6.7h-5.6c-3.2,0-5.6-0.9-7.3-2.6
	c-1.7-1.7-2.6-4-2.6-6.8v-19H162.8L162.8,19.8z"/>
<path class="st1" d="M190.3,35.8V13.4h7v21.3c0,5,2.4,7.5,7.3,7.5c4.9,0,7.3-2.5,7.3-7.5V13.4h7v22.4c0,3.9-1.3,7.1-3.8,9.4
	c-2.5,2.3-6,3.5-10.5,3.5c-4.5,0-8-1.2-10.6-3.5C191.6,42.9,190.3,39.8,190.3,35.8z"/>
<path class="st1" d="M226.5,48.1V13.4h7v3.2c1.6-2.2,4.3-3.2,8.1-3.2h4.3v7h-4.3c-2.6,0-4.6,0.7-6,2.2c-1.4,1.4-2.1,3.7-2.1,6.6v19
	H226.5z"/>
<path class="st1" d="M265.2,19.8v-6.4l5.2,0v-7h7v7h21.4l-2.9,6.4h-18.5v21.7h11.4l-2.9,6.7h-5.6c-3.2,0-5.6-0.9-7.3-2.6
	c-1.7-1.7-2.6-4-2.6-6.8v-19H265.2L265.2,19.8z"/>
<path class="st1" d="M44.9,8.3c2.4,0,4.3-1.9,4.3-4.1S47.3,0,44.9,0c-2.4,0-4.3,1.9-4.3,4.1S42.5,8.3,44.9,8.3z"/>
<path class="st1" d="M32.3,26c2,2.2,3,5.1,3,8.6c0,2.7-0.8,5.2-2.3,7.2c-1.5,2.1-3.6,3.7-6.2,4.8c-2.7,1.1-5.7,1.7-9.1,1.7
	c-5.5,0-9.8-1.4-12.9-4.2C1.7,41.2,0.1,37.5,0,32.8h7.5c0.1,2.6,1.1,4.7,2.8,6.3c1.8,1.5,4.2,2.3,7.4,2.3c3.2,0,5.7-0.6,7.4-1.8
	c1.7-1.2,2.6-2.8,2.6-4.9c0-1.8-0.5-3.2-1.6-4.2c-1.1-1-2.7-1.8-4.9-2.3l-7.2-1.7c-3.8-1-6.8-2.4-8.8-4.5c-2-2-3.1-4.8-3.1-8.2
	c0-4,1.5-7.2,4.3-9.6C9.2,1.5,13.1,0.3,18,0.3h18.6l-3.2,7H18.2c-0.1,0-0.1,0-0.2,0c-2.8,0-4.9,0.6-6.4,1.7
	c-1.5,1.1-2.2,2.6-2.2,4.5c0,1.6,0.5,2.9,1.6,3.8c1,0.9,2.7,1.6,5,2.2l7.2,1.8C27.3,22.2,30.3,23.8,32.3,26z"/>
<path class="st1" d="M18.2,7.2H18v0C18.1,7.2,18.2,7.2,18.2,7.2z"/>
<path class="st1" d="M255.5,8.3c2.4,0,4.3-1.9,4.3-4.1S257.9,0,255.5,0s-4.3,1.9-4.3,4.1S253.2,8.3,255.5,8.3z"/>
</svg>
